<?xml version="1.0" encoding="UTF-8"?>
<svg id="Layer_2" data-name="Layer 2" xmlns="http://www.w3.org/2000/svg" viewBox="0 0 18.78 18.36">
  <defs>
    <style>
      .cls-1 {
        fill: #edecf2;
      }

      .cls-2 {
        fill: none;
        stroke: #edecf2;
        stroke-linecap: round;
        stroke-miterlimit: 10;
        stroke-width: 1.5px;
      }
    </style>
  </defs>
  <g id="datalabs">
    <g>
      <g>
        <path class="cls-1" d="M9.39,12.87c-1.8,0-3.26-1.46-3.26-3.26s1.46-3.26,3.26-3.26,3.26,1.46,3.26,3.26-1.46,3.26-3.26,3.26Z"/>
        <path class="cls-1" d="M9.39,7.11c1.38,0,2.51,1.12,2.51,2.51s-1.12,2.51-2.51,2.51-2.51-1.12-2.51-2.51,1.12-2.51,2.51-2.51M9.39,5.61c-2.21,0-4.01,1.79-4.01,4.01s1.79,4.01,4.01,4.01,4.01-1.79,4.01-4.01-1.79-4.01-4.01-4.01h0Z"/>
      </g>
      <g>
        <line class="cls-2" x1="9.39" y1=".75" x2="9.39" y2="3.14"/>
        <line class="cls-2" x1="2.47" y1="4.08" x2="4.33" y2="5.57"/>
        <line class="cls-2" x1=".75" y1="11.58" x2="3.08" y2="11.05"/>
        <line class="cls-2" x1="5.54" y1="17.6" x2="6.58" y2="15.45"/>
        <line class="cls-2" x1="13.22" y1="17.61" x2="12.19" y2="15.46"/>
        <line class="cls-2" x1="18.03" y1="11.61" x2="15.71" y2="11.07"/>
        <line class="cls-2" x1="16.34" y1="4.11" x2="14.47" y2="5.59"/>
      </g>
    </g>
  </g>
</svg>