<?xml version="1.0" encoding="UTF-8"?>
<svg id="Layer_2" data-name="Layer 2" xmlns="http://www.w3.org/2000/svg" viewBox="0 0 53.09 62.18">
  <defs>
    <style>
      .cls-1 {
        fill: #5c5c64;
      }
    </style>
  </defs>
  <g id="datalabs">
    <g>
      <g>
        <path class="cls-1" d="M12.17,62.18c-6.71,0-12.17-5.35-12.17-11.92V6.1C0,2.74,2.74,0,6.1,0h11.64c3.28,0,6.59,1.89,6.59,6.1v44.15c0,6.58-5.46,11.92-12.17,11.92ZM6.1,2.5c-1.99,0-3.6,1.62-3.6,3.6v44.15c0,5.2,4.34,9.42,9.67,9.42s9.67-4.23,9.67-9.42V6.1c0-3.43-3.41-3.6-4.09-3.6H6.1Z"/>
        <path class="cls-1" d="M22.84,42.77H1.49c-.69,0-1.25-.56-1.25-1.25s.56-1.25,1.25-1.25h21.35c.69,0,1.25.56,1.25,1.25s-.56,1.25-1.25,1.25Z"/>
        <path class="cls-1" d="M22.84,29.51H1.49c-.69,0-1.25-.56-1.25-1.25s.56-1.25,1.25-1.25h21.35c.69,0,1.25.56,1.25,1.25s-.56,1.25-1.25,1.25Z"/>
        <path class="cls-1" d="M22.84,16.25H1.49c-.69,0-1.25-.56-1.25-1.25s.56-1.25,1.25-1.25h21.35c.69,0,1.25.56,1.25,1.25s-.56,1.25-1.25,1.25Z"/>
        <path class="cls-1" d="M12.02,54.42c-2.56,0-4.65-2.08-4.65-4.65s2.08-4.65,4.65-4.65,4.65,2.08,4.65,4.65-2.08,4.65-4.65,4.65ZM12.02,47.62c-1.18,0-2.15.96-2.15,2.15s.96,2.15,2.15,2.15,2.15-.96,2.15-2.15-.96-2.15-2.15-2.15Z"/>
      </g>
      <g>
        <path class="cls-1" d="M22.6,55.5c-.17,0-.34-.03-.51-.11-.63-.28-.92-1.02-.63-1.65L39.43,13.4c1.39-3.13-1.64-4.68-2.27-4.95l-10.64-4.74c-1.19-.53-2.59-.38-3.63.41-.55.41-1.33.3-1.75-.25-.42-.55-.3-1.33.25-1.75,1.77-1.33,4.13-1.6,6.15-.7l10.64,4.74c3,1.33,5.25,4.4,3.53,8.25l-17.97,40.33c-.21.47-.66.74-1.14.74Z"/>
        <path class="cls-1" d="M25.94,47.42c-.17,0-.34-.03-.51-.11l-2.85-1.27c-.63-.28-.91-1.02-.63-1.65.28-.63,1.02-.92,1.65-.63l2.85,1.27c.63.28.91,1.02.63,1.65-.21.46-.66.74-1.14.74Z"/>
        <path class="cls-1" d="M31.33,35.3c-.17,0-.34-.03-.51-.11l-8.25-3.68c-.63-.28-.91-1.02-.63-1.65.28-.63,1.02-.92,1.65-.63l8.25,3.68c.63.28.91,1.02.63,1.65-.21.46-.66.74-1.14.74Z"/>
        <path class="cls-1" d="M36.73,23.19c-.17,0-.34-.03-.51-.11l-13.65-6.08c-.63-.28-.91-1.02-.63-1.65.28-.63,1.02-.92,1.65-.63l13.65,6.08c.63.28.91,1.02.63,1.65-.21.46-.66.74-1.14.74Z"/>
      </g>
      <g>
        <path class="cls-1" d="M23.04,54.52c-.28,0-.57-.1-.8-.29-.53-.44-.6-1.23-.15-1.76l24.43-29.11c.76-.91,1.04-1.86.84-2.85-.19-.9-.77-1.8-1.65-2.54l-5.49-4.61c-.53-.44-.6-1.23-.15-1.76.44-.53,1.23-.6,1.76-.15l5.49,4.61c1.31,1.1,2.19,2.5,2.49,3.95.36,1.75-.11,3.46-1.37,4.96l-24.43,29.11c-.25.29-.6.45-.96.45Z"/>
        <path class="cls-1" d="M24.51,52.39c-.28,0-.57-.1-.8-.29l-1.2-1c-.53-.44-.6-1.23-.15-1.76s1.23-.6,1.76-.15l1.2,1c.53.44.6,1.23.15,1.76-.25.29-.6.45-.96.45Z"/>
        <path class="cls-1" d="M33.04,42.23c-.28,0-.57-.1-.8-.29l-3.47-2.91c-.53-.44-.6-1.23-.15-1.76.44-.53,1.23-.6,1.76-.15l3.47,2.91c.53.44.6,1.23.15,1.76-.25.29-.6.45-.96.45Z"/>
        <path class="cls-1" d="M41.56,32.07c-.28,0-.57-.1-.8-.29l-6.16-5.17c-.53-.44-.6-1.23-.15-1.76.44-.53,1.23-.6,1.76-.15l6.16,5.17c.53.44.6,1.23.15,1.76-.25.29-.6.45-.96.45Z"/>
      </g>
      <g>
        <path class="cls-1" d="M20.4,58.62c-.36,0-.71-.15-.96-.44-.45-.53-.38-1.32.15-1.76l29.66-25.05c2.64-2.2.59-4.93.16-5.45l-2.01-2.41c-.44-.53-.37-1.32.16-1.76.53-.44,1.32-.37,1.76.16l2.01,2.41c2.1,2.52,2.77,6.27-.47,8.97l-29.65,25.05c-.23.2-.52.29-.81.29Z"/>
        <path class="cls-1" d="M32.89,47.57c-.31,0-.63-.12-.87-.35l-1.94-1.89c-.49-.48-.5-1.27-.02-1.77.48-.5,1.27-.51,1.77-.02l1.94,1.89c.49.48.5,1.27.02,1.77-.25.25-.57.38-.9.38Z"/>
        <path class="cls-1" d="M43.07,39.08c-.36,0-.71-.15-.96-.45l-3.53-4.23c-.44-.53-.37-1.32.16-1.76.53-.44,1.32-.37,1.76.16l3.53,4.23c.44.53.37,1.32-.16,1.76-.23.2-.52.29-.8.29Z"/>
      </g>
    </g>
  </g>
</svg>