<?xml version="1.0" encoding="UTF-8"?>
<svg id="Layer_2" data-name="Layer 2" xmlns="http://www.w3.org/2000/svg" viewBox="0 0 55.1 66.44">
  <defs>
    <style>
      .cls-1 {
        fill: #5c5c64;
      }
    </style>
  </defs>
  <g id="datalabs">
    <g>
      <path class="cls-1" d="M41.26,49.1c-3.37,0-5.74,1.44-7.83,2.72-1.91,1.16-3.71,2.26-6.15,2.26s-3.67-1-5.12-2.16c-1.66-1.32-3.54-2.82-7.11-2.82s-5.81,1.65-7.83,3.11c-1.66,1.2-3.1,2.24-5.02,2.24-.68,0-1.22.55-1.22,1.22s.55,1.22,1.22,1.22c2.71,0,4.62-1.37,6.46-2.7,1.88-1.36,3.66-2.64,6.4-2.64s4.04,1.06,5.58,2.29c1.59,1.26,3.38,2.69,6.65,2.69s5.31-1.33,7.42-2.62c1.99-1.21,3.88-2.36,6.56-2.36,2.5,0,4.5,1.38,6.44,2.71,1.88,1.3,3.83,2.64,6.18,2.64.68,0,1.22-.55,1.22-1.22s-.55-1.22-1.22-1.22c-1.59,0-3.08-1.02-4.79-2.21-2.14-1.47-4.56-3.14-7.82-3.14Z"/>
      <path class="cls-1" d="M41.35,42.64c3.7,0,7.24-1.75,9.46-4.68,2.17-2.86,2.8-6.45,1.77-10.09-1.44-5.11-8.96-17.37-9.28-17.89-.22-.36-.61-.58-1.02-.58h-.02c-.41,0-.8.21-1.02.55-.31.47-7.5,11.47-9.46,17.21-1.31,3.85-.76,7.88,1.5,11.05,1.98,2.77,5,4.43,8.07,4.43ZM34.09,27.95c1.43-4.19,6.04-11.7,8.13-15.01,2.13,3.56,6.95,11.87,8,15.59.81,2.89.33,5.72-1.37,7.95-1.76,2.33-4.57,3.71-7.51,3.71-2.28,0-4.56-1.27-6.08-3.41-1.8-2.52-2.23-5.74-1.18-8.84Z"/>
      <path class="cls-1" d="M42.06,37.17c.68,0,1.22-.55,1.22-1.22s-.55-1.22-1.22-1.22c-1.93,0-3.89-1.35-3.89-3.92,0-.68-.55-1.22-1.22-1.22s-1.22.55-1.22,1.22c0,4.13,3.26,6.37,6.33,6.37Z"/>
      <path class="cls-1" d="M53.88,63.99c-1.59,0-3.08-1.02-4.79-2.21-2.14-1.47-4.56-3.14-7.82-3.14s-5.74,1.44-7.83,2.72c-1.91,1.16-3.71,2.26-6.15,2.26s-3.67-1-5.12-2.16c-1.66-1.32-3.54-2.82-7.11-2.82s-5.81,1.65-7.83,3.11c-1.66,1.2-3.1,2.24-5.02,2.24-.68,0-1.22.55-1.22,1.22s.55,1.22,1.22,1.22c2.71,0,4.62-1.37,6.46-2.7,1.88-1.36,3.66-2.64,6.4-2.64s4.04,1.06,5.58,2.29c1.59,1.26,3.38,2.69,6.65,2.69s5.31-1.33,7.42-2.62c1.99-1.21,3.88-2.36,6.56-2.36,2.5,0,4.5,1.38,6.44,2.71,1.88,1.3,3.83,2.64,6.18,2.64.68,0,1.22-.55,1.22-1.22s-.55-1.22-1.22-1.22Z"/>
      <path class="cls-1" d="M1.57,14.66l5.29-1.55,5.34,3.38-4.24,2.68-4.87-1.43c-.65-.18-1.33.18-1.52.83-.19.65.18,1.33.83,1.52l2.8.82-3.43,2.17c-.57.36-.74,1.12-.38,1.69.23.37.63.57,1.04.57.22,0,.45-.06.65-.19l3.23-2.04-.84,3.44c-.16.66.24,1.32.9,1.48.1.02.2.04.29.04.55,0,1.05-.38,1.19-.93l1.44-5.9,3.98-2.52v6.32l-3.65,3.99c-.46.5-.42,1.27.08,1.73.5.45,1.27.42,1.73-.08l1.84-2.02v2.78c0,.68.55,1.22,1.22,1.22s1.22-.55,1.22-1.22v-2.84l2.13,2.33c.24.26.57.4.9.4.29,0,.59-.11.83-.32.5-.46.53-1.23.08-1.73l-3.93-4.31v-6.25l5.32,3.36,1.29,5.29c.14.56.64.93,1.19.93.1,0,.19-.01.29-.04.66-.16,1.06-.82.9-1.48l-.69-2.82,1.64,1.04c.2.13.43.19.65.19.41,0,.8-.2,1.04-.57.36-.57.19-1.33-.38-1.69l-2.16-1.37,3.37-.99c.65-.19,1.02-.87.83-1.52-.19-.65-.87-1.01-1.52-.83l-5.43,1.59-5.26-3.33,4.37-2.76,4.82,1.41c.12.03.23.05.35.05.53,0,1.02-.35,1.17-.88.19-.65-.18-1.33-.83-1.52l-2.75-.81,3.06-1.93c.57-.36.74-1.12.38-1.69-.36-.57-1.12-.74-1.69-.38l-2.93,1.85.86-3.5c.16-.66-.24-1.32-.9-1.48-.65-.16-1.32.24-1.48.9l-1.46,5.96-4.03,2.55v-6.02l3.77-4.13c.46-.5.42-1.27-.08-1.73-.5-.46-1.27-.42-1.73.08l-1.96,2.15V1.22c0-.68-.55-1.22-1.22-1.22s-1.22.55-1.22,1.22v3.18l-2-2.19c-.46-.5-1.23-.53-1.73-.08-.5.46-.53,1.23-.08,1.73l3.81,4.17v6.23l-5.21-3.29-1.33-5.45c-.16-.66-.83-1.06-1.48-.9-.66.16-1.06.82-.9,1.48l.73,2.98-2.01-1.27c-.57-.36-1.33-.19-1.69.38-.36.57-.19,1.33.38,1.69l2.34,1.48-3.22.94c-.65.19-1.02.87-.83,1.52.16.53.64.88,1.17.88.11,0,.23-.02.35-.05Z"/>
    </g>
  </g>
</svg>