<?xml version="1.0" encoding="UTF-8"?>
<svg id="Layer_2" data-name="Layer 2" xmlns="http://www.w3.org/2000/svg" viewBox="0 0 61.68 54.58">
  <defs>
    <style>
      .cls-1 {
        fill: #5c5c64;
      }
    </style>
  </defs>
  <g id="datalabs">
    <g>
      <path class="cls-1" d="M27.29,34.46c-3.95,0-7.17-3.22-7.17-7.17s3.22-7.17,7.17-7.17,7.17,3.22,7.17,7.17-3.22,7.17-7.17,7.17ZM27.29,22.62c-2.57,0-4.67,2.09-4.67,4.67s2.09,4.67,4.67,4.67,4.67-2.09,4.67-4.67-2.09-4.67-4.67-4.67Z"/>
      <path class="cls-1" d="M27.29,45.11c-9.32,0-17.12-7.27-17.78-16.55-.05-.69.47-1.29,1.16-1.33.71-.05,1.29.47,1.33,1.16.56,7.98,7.27,14.23,15.28,14.23,8.45,0,15.32-6.87,15.32-15.32s-6.87-15.32-15.32-15.32c-6.31,0-12.06,3.96-14.32,9.85-.25.64-.97.97-1.61.72-.65-.25-.97-.97-.72-1.61,2.62-6.85,9.31-11.46,16.65-11.46,9.83,0,17.82,7.99,17.82,17.82s-7.99,17.82-17.82,17.82Z"/>
      <path class="cls-1" d="M27.29,54.58C12.24,54.58,0,42.34,0,27.29S12.24,0,27.29,0s27.29,12.24,27.29,27.29c0,7.56-3.02,14.6-8.51,19.8-.5.48-1.29.45-1.77-.05-.47-.5-.45-1.29.05-1.77,4.99-4.73,7.73-11.12,7.73-17.99,0-13.67-11.12-24.79-24.79-24.79S2.5,13.62,2.5,27.29s11.12,24.79,24.79,24.79c4.16,0,7.95-.91,11.28-2.71.61-.33,1.37-.1,1.69.51.33.61.1,1.37-.51,1.69-3.7,2-7.89,3.01-12.47,3.01Z"/>
      <path class="cls-1" d="M10.72,29.72c-2.65,0-4.8-2.15-4.8-4.8s2.15-4.8,4.8-4.8,4.8,2.15,4.8,4.8-2.15,4.8-4.8,4.8ZM10.72,22.62c-1.27,0-2.3,1.03-2.3,2.3s1.03,2.3,2.3,2.3,2.3-1.03,2.3-2.3-1.03-2.3-2.3-2.3Z"/>
      <path class="cls-1" d="M42.45,53.2c-2.65,0-4.8-2.15-4.8-4.8s2.15-4.8,4.8-4.8,4.8,2.15,4.8,4.8-2.15,4.8-4.8,4.8ZM42.45,46.1c-1.27,0-2.3,1.03-2.3,2.3s1.03,2.3,2.3,2.3,2.3-1.03,2.3-2.3-1.03-2.3-2.3-2.3Z"/>
      <path class="cls-1" d="M56.88,10.53c-2.65,0-4.8-2.15-4.8-4.8s2.15-4.8,4.8-4.8,4.8,2.15,4.8,4.8-2.15,4.8-4.8,4.8ZM56.88,3.42c-1.27,0-2.3,1.03-2.3,2.3s1.03,2.3,2.3,2.3,2.3-1.03,2.3-2.3-1.03-2.3-2.3-2.3Z"/>
    </g>
  </g>
</svg>