<?xml version="1.0" encoding="UTF-8"?>
<svg id="Layer_2" data-name="Layer 2" xmlns="http://www.w3.org/2000/svg" viewBox="0 0 60.33 59.57">
  <defs>
    <style>
      .cls-1 {
        fill: #5c5c64;
      }
    </style>
  </defs>
  <g id="datalabs">
    <g>
      <path class="cls-1" d="M37.14,59.57H1.25c-.69,0-1.25-.56-1.25-1.25V22.43c0-.69.56-1.25,1.25-1.25h35.89c.69,0,1.25.56,1.25,1.25v35.89c0,.69-.56,1.25-1.25,1.25ZM2.5,57.07h33.39V23.68H2.5v33.39Z"/>
      <path class="cls-1" d="M42.25,49.73c-.56,0-1.07-.38-1.21-.94-.17-.67.23-1.35.9-1.52l5.82-1.49-8.28-32.35-24.06,6.15c-.67.17-1.35-.23-1.52-.9-.17-.67.23-1.35.9-1.52l25.27-6.46c.67-.17,1.35.23,1.52.9l8.89,34.77c.08.32.03.66-.14.95s-.44.49-.77.57l-7.03,1.8c-.1.03-.21.04-.31.04Z"/>
      <path class="cls-1" d="M51.81,37.94c-.44,0-.87-.23-1.1-.65-.33-.6-.11-1.37.49-1.7l6.18-3.4L41.26,2.95l-20.38,11.23c-.61.33-1.37.11-1.7-.49s-.11-1.37.49-1.7L41.15.15c.29-.16.63-.2.95-.11.32.09.59.31.75.6l17.33,31.43c.16.29.2.63.11.95-.09.32-.31.59-.6.75l-7.27,4.01c-.19.11-.4.16-.6.16Z"/>
      <g>
        <path class="cls-1" d="M21.78,53.33h-5.25c-.67,0-1.22-.53-1.25-1.2-.02-.44-.17-4.31-.08-5.48.06-.78-.36-1.73-1.29-2.88-1.31-1.63-1.95-3.25-1.95-4.94,0-3.99,3.25-7.24,7.24-7.24s7.24,3.25,7.24,7.24c0,1.93-.88,3.47-1.65,4.59h0c-.64.94-1.53,2.96-1.59,3.61-.07.75-.15,3.92-.17,5.07-.01.68-.57,1.22-1.25,1.22ZM17.73,50.83h2.82c.03-1.33.09-3.36.15-4.02.12-1.28,1.29-3.73,2.02-4.8h0c.84-1.23,1.21-2.21,1.21-3.18,0-2.62-2.13-4.74-4.74-4.74s-4.74,2.13-4.74,4.74c0,1.1.46,2.2,1.4,3.37,1.35,1.67,1.95,3.19,1.84,4.64-.05.65,0,2.58.04,3.99ZM23.76,42.71h0,0Z"/>
        <path class="cls-1" d="M20.86,49.21h-3.5c-.69,0-1.25-.56-1.25-1.25s.56-1.25,1.25-1.25h3.5c.69,0,1.25.56,1.25,1.25s-.56,1.25-1.25,1.25Z"/>
        <path class="cls-1" d="M10.19,49c-.32,0-.64-.12-.88-.37-.49-.49-.49-1.28,0-1.77l1.22-1.22c.49-.49,1.28-.49,1.77,0s.49,1.28,0,1.77l-1.22,1.22c-.24.24-.56.37-.88.37Z"/>
        <path class="cls-1" d="M26.89,32.55c-.32,0-.64-.12-.88-.37-.49-.49-.49-1.28,0-1.77l1.22-1.22c.49-.49,1.28-.49,1.77,0s.49,1.28,0,1.77l-1.22,1.22c-.24.24-.56.37-.88.37Z"/>
        <path class="cls-1" d="M19.29,30.3c-.69,0-1.25-.56-1.25-1.25v-1.73c0-.69.56-1.25,1.25-1.25s1.25.56,1.25,1.25v1.73c0,.69-.56,1.25-1.25,1.25Z"/>
        <path class="cls-1" d="M28.12,48.72c-.32,0-.64-.12-.88-.37l-1.22-1.22c-.49-.49-.49-1.28,0-1.77s1.28-.49,1.77,0l1.22,1.22c.49.49.49,1.28,0,1.77-.24.24-.56.37-.88.37Z"/>
        <path class="cls-1" d="M11.68,32.02c-.32,0-.64-.12-.88-.37l-1.22-1.22c-.49-.49-.49-1.28,0-1.77s1.28-.49,1.77,0l1.22,1.22c.49.49.49,1.28,0,1.77-.24.24-.56.37-.88.37Z"/>
        <path class="cls-1" d="M31.88,40.12h-1.73c-.69,0-1.25-.56-1.25-1.25s.56-1.25,1.25-1.25h1.73c.69,0,1.25.56,1.25,1.25s-.56,1.25-1.25,1.25Z"/>
        <path class="cls-1" d="M8.43,39.93h-1.73c-.69,0-1.25-.56-1.25-1.25s.56-1.25,1.25-1.25h1.73c.69,0,1.25.56,1.25,1.25s-.56,1.25-1.25,1.25Z"/>
      </g>
    </g>
  </g>
</svg>