<?xml version="1.0" encoding="UTF-8"?>
<svg id="Layer_2" data-name="Layer 2" xmlns="http://www.w3.org/2000/svg" viewBox="0 0 55.35 60.18">
  <defs>
    <style>
      .cls-1 {
        fill: #5c5c64;
      }
    </style>
  </defs>
  <g id="datalabs">
    <g>
      <path class="cls-1" d="M48.39,60.18h-24.92c-.69,0-1.25-.56-1.25-1.25s.56-1.25,1.25-1.25h24.92c.69,0,1.25.56,1.25,1.25s-.56,1.25-1.25,1.25Z"/>
      <path class="cls-1" d="M35.33,60.18c-.44,0-.86-.23-1.09-.64-.18-.32-4.44-7.94-7.1-18.57-1.07-4.27-.94-8.46-.83-12.16.18-5.87.32-10.51-3.67-14.09-.51-.46-.56-1.25-.1-1.76.46-.52,1.25-.56,1.76-.1,4.85,4.35,4.68,10.02,4.5,16.02-.11,3.71-.23,7.54.76,11.47,2.57,10.29,6.81,17.87,6.85,17.95.34.6.13,1.36-.48,1.7-.19.11-.4.16-.61.16Z"/>
      <path class="cls-1" d="M34.18,54.47c-.56,0-1.07-.38-1.21-.95-1.17-4.67-.17-13.17,1.05-16.41.65-1.72,1.21-3.01,1.7-4.15,1.17-2.7,1.87-4.33,2.39-8.42.74-5.84-1.56-19.34-2.95-22.83-.26-.64.05-1.37.7-1.62.64-.26,1.37.05,1.62.7,1.68,4.19,3.89,17.93,3.11,24.07-.56,4.45-1.41,6.4-2.58,9.1-.48,1.12-1.03,2.38-1.66,4.04-.99,2.63-2.05,10.55-.96,14.92.17.67-.24,1.35-.91,1.52-.1.03-.2.04-.3.04Z"/>
      <path class="cls-1" d="M38.03,31.88c-.3,0-.61-.11-.85-.33-3.73-3.42-8.71-12.69-7.15-24.21.09-.69.73-1.17,1.41-1.07.68.09,1.16.72,1.07,1.41-1.42,10.5,3.15,19.09,6.36,22.04.51.47.54,1.26.08,1.77-.25.27-.58.4-.92.4Z"/>
      <path class="cls-1" d="M35.32,59.42s-.06,0-.08,0c-.69-.05-1.21-.64-1.16-1.33.03-.43.73-10.48,3.54-15.4,2.37-4.14,4.76-6.86,7.08-9.5,1.55-1.75,3.01-3.41,4.46-5.47,3.57-5.03,2.47-12.74,1.81-17.34-.1-.68.38-1.32,1.06-1.41.67-.1,1.32.38,1.41,1.06.71,4.97,1.9,13.3-2.25,19.14-1.53,2.17-3.11,3.95-4.63,5.68-2.24,2.54-4.55,5.17-6.79,9.08-2.53,4.42-3.21,14.23-3.22,14.33-.04.66-.59,1.17-1.25,1.17Z"/>
      <path class="cls-1" d="M35.19,59.61c-.38,0-.76-.18-1.01-.51-.41-.56-.29-1.34.27-1.75,5.22-3.83,9.04-9.78,10.46-16.34,2.42-11.13,1.3-20.81.03-24.3-.24-.65.1-1.37.75-1.6.65-.23,1.37.1,1.6.75,1.42,3.9,2.62,13.96.07,25.69-1.55,7.14-5.72,13.64-11.43,17.82-.22.16-.48.24-.74.24Z"/>
      <path class="cls-1" d="M35.32,59.42c-.54,0-1.04-.35-1.2-.9-.19-.66.18-1.36.85-1.55.08-.02,7.96-2.36,11.85-5.69,3.68-3.15,5.71-6.52,6.04-10.01.06-.69.68-1.19,1.36-1.13.69.06,1.19.67,1.13,1.36-.39,4.16-2.71,8.09-6.9,11.67-4.29,3.68-12.43,6.09-12.77,6.19-.12.04-.24.05-.35.05Z"/>
      <path class="cls-1" d="M34.19,60.18c-.46,0-.9-.25-1.12-.69l-.22-.45c-1.15-2.34-2.9-5.88-8.72-10.36-7.17-5.51-9.58-9.93-8.61-15.77.11-.68.76-1.15,1.44-1.03.68.11,1.14.76,1.03,1.44-.68,4.1.37,7.76,7.67,13.38,6.29,4.83,8.26,8.84,9.44,11.24l.22.44c.31.62.06,1.37-.56,1.68-.18.09-.37.13-.56.13Z"/>
      <g>
        <path class="cls-1" d="M1.25,27.69c-.41,0-.79-.2-1.02-.53-.23-.33-.29-.76-.15-1.15.68-1.85,1.6-3.25,2.94-4.4-.58-1.49-.67-2.98-.77-4.43-.02-.38-.05-.77-.08-1.16-.04-.47.18-.92.58-1.17.4-.25.9-.25,1.31-.01l.11.07c1.7,1.01,3.04,1.82,4.79,4.79.35.59.16,1.36-.44,1.71-.59.35-1.36.16-1.71-.44-.73-1.23-1.33-1.99-1.95-2.55.11,1.07.3,2.04.81,2.97.3.56.14,1.25-.37,1.62-.84.6-1.49,1.26-2.01,2.09,1.39-.16,2.51-.55,4.04-1.31.62-.31,1.37-.06,1.68.56.31.62.06,1.37-.56,1.68-2.54,1.27-4.29,1.68-7.19,1.68Z"/>
        <path class="cls-1" d="M13.59,28.43c-3.94,0-8.1-3.78-8.1-5.82s4.17-5.82,8.1-5.82,6.96,2.45,6.96,5.82-2.93,5.82-6.96,5.82ZM8.02,22.61c.42.91,3.02,3.32,5.57,3.32s4.46-1.37,4.46-3.32-1.83-3.32-4.46-3.32-5.16,2.41-5.57,3.32Z"/>
      </g>
      <path class="cls-1" d="M12.57,56.15c-.67,0-1.33-.12-1.97-.37-2.78-1.08-4.16-4.23-3.07-7,1.08-2.78,4.23-4.16,7-3.07h0c2.78,1.08,4.16,4.23,3.07,7-.53,1.35-1.54,2.41-2.87,2.99-.7.3-1.43.46-2.17.46ZM12.57,47.83c-1.16,0-2.26.7-2.71,1.85-.28.72-.27,1.51.05,2.23.31.71.88,1.26,1.61,1.54.72.28,1.52.27,2.23-.05.71-.31,1.26-.88,1.54-1.61.58-1.49-.16-3.18-1.65-3.77-.35-.13-.7-.2-1.05-.2Z"/>
    </g>
  </g>
</svg>