<svg width="463" height="226" viewBox="0 0 463 226" fill="none" xmlns="http://www.w3.org/2000/svg">
  <path
    d="M347 85.5C394.253 87.6659 416.705 90.7399 438.527 95.215C460.348 99.6901 464.887 104.734 451.369 109.486C437.852 114.239 394.719 117.627 352 120.5M132 123C78.3284 120.527 120.047 122.36 76.3269 119.571C37.8374 116.217 12.9866 111.72 6.00862 106.846C-0.969321 101.971 10.3574 97.0218 38.0588 92.8404C65.7603 88.6589 85.6951 87.0904 135.5 85.5"
    stroke="black" stroke-width="8" stroke-linecap="round" stroke-dasharray="24 24" />
  <mask id="path-2-outside-1_161_81" maskUnits="userSpaceOnUse" x="128.487" y="0" width="226"
    height="226" fill="black">
    <rect fill="white" x="128.487" width="226" height="226" />
    <path
      d="M241.17 8C298.986 8 345.855 54.8684 345.855 112.684C345.855 170.499 298.986 217.368 241.17 217.368C183.355 217.368 136.487 170.499 136.487 112.684C136.487 54.8685 183.355 8.00014 241.17 8Z" />
  </mask>
  <path
    d="M241.17 8L241.17 0L241.17 0L241.17 8ZM345.855 112.684L353.855 112.684L353.855 112.684L345.855 112.684ZM241.17 217.368L241.17 225.368H241.17V217.368ZM136.487 112.684L128.487 112.684V112.684H136.487ZM241.17 8V16C294.567 16 337.855 59.2868 337.855 112.684L345.855 112.684L353.855 112.684C353.855 50.4501 303.404 0 241.17 0V8ZM345.855 112.684H337.855C337.855 166.081 294.567 209.368 241.17 209.368V217.368V225.368C303.404 225.368 353.855 174.917 353.855 112.684H345.855ZM241.17 217.368L241.17 209.368C187.774 209.368 144.487 166.081 144.487 112.684H136.487H128.487C128.487 174.917 178.937 225.368 241.17 225.368L241.17 217.368ZM136.487 112.684L144.487 112.684C144.487 59.2868 187.774 16.0001 241.17 16L241.17 8L241.17 0C178.937 0.000146485 128.487 50.4502 128.487 112.684L136.487 112.684Z"
    fill="#a8a8b4" mask="url(#path-2-outside-1_161_81)" />
  <path
    d="M334.975 121.871C292.256 128.049 269.618 127.526 217.091 126.856C164.563 126.186 202.73 126.856 154.861 124.288"
    stroke="black" stroke-width="8" stroke-linecap="round" stroke-dasharray="24 24" />
  <path
    d="M289.04 107.739C300.127 107.739 308.974 116.524 308.974 127.19C308.974 137.856 300.126 146.641 289.04 146.641C277.953 146.641 269.105 137.856 269.105 127.19C269.105 116.524 277.953 107.739 289.04 107.739Z"
    fill="#a8a8b4" stroke="black" stroke-width="8" />
</svg>
