<?xml version="1.0" encoding="UTF-8"?>
<svg id="Layer_2" data-name="Layer 2" xmlns="http://www.w3.org/2000/svg" viewBox="0 0 61.59 54.3">
  <defs>
    <style>
      .cls-1 {
        fill: #5c5c64;
      }
    </style>
  </defs>
  <g id="datalabs">
    <g>
      <g>
        <path class="cls-1" d="M54.1,40.92c-.17,0-.34-.03-.51-.11l-3.96-1.77c-.32-.14-.56-.41-.67-.74-.11-.33-.08-.69.08-1l6.57-12.22c.31-.58,1.04-.82,1.64-.54l3.64,1.72c.62.29.89,1.04.6,1.66-.29.62-1.04.89-1.66.6l-2.56-1.21-5.37,9.99,2.73,1.22c.63.28.91,1.02.63,1.65-.21.47-.66.74-1.14.74Z"/>
        <path class="cls-1" d="M17.75,40.21c-.05,0-.11,0-.16-.01-.4-.05-.75-.29-.94-.65l-2.24-4.16c-.25-.46-.18-1.02.16-1.41h0c-.52.06-1.01-.19-1.26-.65l-1.4-2.61c-.19-.36-.2-.78-.02-1.14s.52-.62.92-.68l10.01-1.63c.49-.09.98.14,1.25.55l1.86,2.84c.32.48.26,1.12-.13,1.54l-7.12,7.61c-.24.25-.57.4-.91.4ZM17.03,34.98l1,1.85,5.26-5.63-.88-1.34-7.48,1.22.17.31,2.48-.32c.52-.07,1.02.2,1.26.66.24.46.17,1.03-.18,1.42l-1.64,1.83Z"/>
        <path class="cls-1" d="M24.87,32.59c-.43,0-.84-.22-1.08-.61-.35-.59-.15-1.36.44-1.71l6.59-3.9c.59-.35,1.36-.16,1.71.44.35.59.15,1.36-.44,1.71l-6.59,3.9c-.2.12-.42.17-.64.17Z"/>
        <path class="cls-1" d="M36.08,25.96c-.43,0-.84-.22-1.08-.61-.35-.59-.16-1.36.44-1.71l14.99-8.87c.13-.09.93-.64.6-1.23-.07-.13-.12-.14-.15-.15-.27-.07-.84.14-1.12.31l-16.43,10c-.59.36-1.36.17-1.72-.42-.36-.59-.17-1.36.42-1.72l16.43-10c.25-.16,1.64-.96,3.05-.6.73.19,1.32.66,1.71,1.35,1.12,2-.28,3.84-1.49,4.59l-15,8.88c-.2.12-.42.17-.64.17Z"/>
        <path class="cls-1" d="M23.02,29.75c-.42,0-.83-.21-1.07-.6-.36-.59-.17-1.36.42-1.72l5.99-3.64c.59-.36,1.36-.17,1.72.42.36.59.17,1.36-.42,1.72l-5.99,3.64c-.2.12-.43.18-.65.18Z"/>
        <path class="cls-1" d="M27.64,26.94c-.28,0-.56-.09-.79-.28-.09-.06-.2-.09-.32-.14-.74-.31-2.72-1.14-1.86-4.01.57-1.9,5.09-4.75,8.78-6.81,2.2-1.23,9.31-2.26,11.47-1.41.64.25.96.98.71,1.62s-.98.96-1.62.71c-1.36-.54-7.63.32-9.33,1.27-4.31,2.4-7.31,4.66-7.61,5.37-.15.52-.09.69-.09.7.06.07.36.2.52.27.3.13.64.27.94.52.53.44.6,1.23.15,1.76-.25.29-.6.45-.96.45Z"/>
        <path class="cls-1" d="M50.59,37.41c-.85,0-3.46-.13-6.48-1.55l-.93-.43c-2.7-1.26-5.25-2.45-8.71-4.8-2.23-1.52-4.27-3.06-5.06-3.84-1.56-1.53-1.41-3.3-.57-4.37,1.03-1.32,2.96-1.6,4.5-.66,1.15.7,2.6,1.54,3.82,2.24,1.05.6,1.93,1.11,2.33,1.37.17.11.61.35.86.22.19-.11.34-.43.34-.73,0-2.11-.24-3.14-.24-3.15-.16-.67.25-1.34.91-1.51.66-.16,1.34.23,1.51.9.03.13.32,1.33.32,3.76,0,1.23-.64,2.38-1.64,2.93-.59.32-1.81.71-3.4-.31-.39-.25-1.23-.73-2.24-1.31-1.24-.71-2.71-1.56-3.88-2.28-.58-.35-1.05-.16-1.22.06-.28.36.15.85.35,1.05.58.57,2.38,1.97,4.71,3.55,3.3,2.24,5.65,3.34,8.37,4.61l.94.44c3,1.41,5.54,1.31,5.57,1.31.72-.04,1.28.5,1.31,1.18s-.49,1.27-1.18,1.31c-.02,0-.12,0-.28,0Z"/>
        <path class="cls-1" d="M55.65,28.9c-.29,0-.58-.1-.82-.3-.12-.11-3.03-2.62-5-5.49-1.66-2.4-3.41-4.1-3.43-4.12-.5-.48-.51-1.27-.04-1.77.48-.5,1.27-.52,1.77-.04.08.08,1.95,1.88,3.76,4.5,1.79,2.6,4.55,4.99,4.58,5.02.52.45.58,1.24.13,1.76-.25.29-.6.43-.95.43Z"/>
      </g>
      <path class="cls-1" d="M41.54,46.49H8.73c-.69,0-1.25-.56-1.25-1.25V8.79c0-.69.56-1.25,1.25-1.25h32.81c.69,0,1.25.56,1.25,1.25v2.12c0,.69-.56,1.25-1.25,1.25s-1.25-.56-1.25-1.25v-.87H9.98v33.95h30.31v-5.99c0-.69.56-1.25,1.25-1.25s1.25.56,1.25,1.25v7.24c0,.69-.56,1.25-1.25,1.25Z"/>
      <path class="cls-1" d="M6.04,54.3C2.74,54.3.05,51.62.05,48.31c0-1.67.7-3.23,1.87-4.35-.51-.64-.82-1.44-.82-2.3,0-1.32.7-2.5,1.79-3.15l-.29-22.85c-1.02-.66-1.65-1.8-1.65-3.06,0-.85.3-1.66.82-2.3-1.13-1.1-1.78-2.62-1.78-4.26C0,2.75,2.69.06,5.99.06c1.67,0,3.23.7,4.35,1.87.64-.51,1.44-.82,2.3-.82,1.32,0,2.5.7,3.14,1.79l18.88-.3c.66-1.02,1.8-1.66,3.06-1.66.86,0,1.66.31,2.3.82,1.1-1.13,2.62-1.78,4.26-1.78,3.3,0,5.99,2.69,5.99,5.99,0,1.48-.55,2.91-1.54,4.01-.46.51-1.25.55-1.77.09-.51-.46-.55-1.25-.09-1.77.58-.64.9-1.47.9-2.33,0-1.92-1.57-3.49-3.49-3.49-1.34,0-2.54.75-3.13,1.97-.22.46-.72.74-1.22.7-.51-.04-.95-.39-1.1-.89-.15-.49-.6-.82-1.11-.82s-.94.32-1.1.79c-.17.5-.63.85-1.17.85l-20.48.32h-.02c-.57,0-1.07-.38-1.21-.94-.13-.51-.59-.87-1.12-.87s-.97.35-1.11.84c-.14.51-.59.87-1.11.91-.52.03-1.02-.26-1.23-.74-.56-1.26-1.81-2.07-3.19-2.07-1.92,0-3.49,1.56-3.49,3.49,0,1.34.75,2.54,1.97,3.13.46.23.74.71.7,1.23-.04.51-.39.95-.89,1.1-.48.15-.82.6-.82,1.11s.32.94.79,1.1c.51.17.85.64.86,1.17l.31,24.45c0,.58-.38,1.08-.94,1.23-.51.13-.86.59-.86,1.12s.35.97.84,1.11c.51.14.87.59.91,1.11.04.53-.26,1.02-.74,1.23-1.26.56-2.07,1.81-2.07,3.19,0,1.92,1.56,3.49,3.49,3.49,1.34,0,2.54-.75,3.13-1.97.22-.46.71-.73,1.23-.7.51.04.95.39,1.1.89.15.49.6.82,1.11.82s.94-.32,1.1-.79c.17-.5.63-.85,1.17-.85l20.48-.32c.62.01,1.09.38,1.23.94.13.51.59.86,1.12.86s.97-.35,1.11-.84c.14-.51.59-.87,1.11-.91.54-.03,1.02.26,1.23.74.56,1.26,1.81,2.07,3.19,2.07,1.92,0,3.49-1.56,3.49-3.49,0-1.34-.75-2.54-1.97-3.13-.46-.23-.74-.71-.7-1.23.04-.51.39-.95.89-1.1.49-.15.82-.6.82-1.11,0-.09-.01-.18-.03-.27-.16-.67.25-1.35.92-1.51.67-.17,1.35.25,1.51.92.07.28.1.57.1.86,0,.85-.31,1.66-.82,2.3,1.12,1.1,1.78,2.62,1.78,4.26,0,3.3-2.69,5.99-5.99,5.99-1.67,0-3.23-.7-4.35-1.87-.64.51-1.44.82-2.3.82-1.32,0-2.5-.7-3.14-1.79l-18.88.3c-.66,1.02-1.8,1.66-3.06,1.66-.85,0-1.66-.31-2.3-.82-1.1,1.12-2.62,1.78-4.26,1.78Z"/>
    </g>
  </g>
</svg>