<?xml version="1.0" encoding="UTF-8"?>
<svg id="Layer_2" data-name="Layer 2" xmlns="http://www.w3.org/2000/svg" viewBox="0 0 46.53 58.42">
  <defs>
    <style>
      .cls-1 {
        fill: #5c5c64;
      }
    </style>
  </defs>
  <g id="datalabs">
    <g>
      <path class="cls-1" d="M45.03,33.68H1.25c-.69,0-1.25-.56-1.25-1.25V13.21c0-.69.56-1.25,1.25-1.25h26.44c.69,0,1.25.56,1.25,1.25s-.56,1.25-1.25,1.25H2.5v16.72h41.28V14.46h-4.84c-.69,0-1.25-.56-1.25-1.25s.56-1.25,1.25-1.25h6.09c.69,0,1.25.56,1.25,1.25v19.22c0,.69-.56,1.25-1.25,1.25Z"/>
      <path class="cls-1" d="M45.03,58.42H1.25c-.69,0-1.25-.56-1.25-1.25v-19.22c0-.69.56-1.25,1.25-1.25h43.78c.69,0,1.25.56,1.25,1.25v19.22c0,.69-.56,1.25-1.25,1.25ZM2.5,55.92h41.28v-16.72H2.5v16.72Z"/>
      <path class="cls-1" d="M23.14,53.77c-.45,0-.88-.24-1.11-.67l-3.66-6.96-1.53,4.16c-.16.45-.57.76-1.04.81-.48.05-.93-.17-1.19-.57l-1.25-1.96-.88,4.2c-.12.58-.63.99-1.22.99h-4.26c-.69,0-1.25-.56-1.25-1.25s.56-1.25,1.25-1.25h3.25l1.31-6.21c.11-.5.5-.88,1-.97.5-.09,1,.13,1.28.56l1.54,2.42,1.62-4.43c.17-.46.6-.78,1.09-.82.51-.03.96.23,1.19.67l4.42,8.41,6.09-2.79,2.01-5.58c.18-.51.65-.87,1.22-.83.54.02,1.01.38,1.16.9l2.51,8.67h2.76c.69,0,1.25.56,1.25,1.25s-.56,1.25-1.25,1.25h-3.7c-.56,0-1.05-.37-1.2-.9l-1.7-5.87-.88,2.45c-.11.32-.35.57-.66.71l-7.65,3.5c-.17.08-.35.11-.52.11Z"/>
      <path class="cls-1" d="M29.48,23.93c-.32,0-.64-.12-.88-.37l-5.63-5.63c-.23-.23-.37-.55-.37-.88s.13-.65.37-.88L38.77.37c.23-.23.55-.37.88-.37h0c.33,0,.65.13.88.37l5.63,5.63c.49.49.49,1.28,0,1.77l-15.81,15.81c-.24.24-.56.37-.88.37ZM25.61,17.06l3.86,3.86,14.04-14.04-3.86-3.86-14.04,14.04Z"/>
      <path class="cls-1" d="M21.47,26.54c-.32,0-.63-.12-.87-.35-.33-.32-.46-.8-.33-1.25l2.38-8.24c.19-.66.89-1.04,1.55-.85.66.19,1.05.88.85,1.55l-1.72,5.97,5.76-1.88c.66-.21,1.36.15,1.58.8.21.66-.14,1.36-.8,1.58l-8.01,2.61c-.13.04-.26.06-.39.06Z"/>
      <path class="cls-1" d="M18.17,23.86c-.23,0-.47-.06-.68-.2l-.33-.21c-.58-.38-.75-1.15-.37-1.73.37-.58,1.15-.75,1.73-.37l.33.21c.58.38.75,1.15.37,1.73-.24.37-.64.57-1.05.57Z"/>
      <path class="cls-1" d="M14.77,21.66c-.23,0-.47-.06-.68-.2l-.39-.25c-.58-.38-.75-1.15-.37-1.73.38-.58,1.15-.75,1.73-.37l.39.25c.58.38.75,1.15.37,1.73-.24.37-.64.57-1.05.57Z"/>
      <path class="cls-1" d="M11.5,19.54c-.23,0-.47-.06-.68-.2l-.48-.31c-.58-.38-.75-1.15-.37-1.73.38-.58,1.15-.75,1.73-.37l.48.31c.58.38.75,1.15.37,1.73-.24.37-.64.57-1.05.57Z"/>
      <path class="cls-1" d="M7,19.79c-.43,0-.86-.23-1.09-.63-.34-.6-.13-1.36.47-1.71l.45-.25c.6-.34,1.36-.13,1.71.47.34.6.13,1.36-.47,1.71l-.45.25c-.2.11-.41.16-.62.16Z"/>
    </g>
  </g>
</svg>