<?xml version="1.0" encoding="UTF-8"?>
<svg id="Layer_2" data-name="Layer 2" xmlns="http://www.w3.org/2000/svg" viewBox="0 0 55.81 56.41">
  <defs>
    <style>
      .cls-1 {
        fill: #5c5c64;
      }
    </style>
  </defs>
  <g id="datalabs">
    <g>
      <path class="cls-1" d="M5.9,39.32H1.25c-.69,0-1.25-.56-1.25-1.25s.56-1.25,1.25-1.25h4.65c.69,0,1.25.56,1.25,1.25s-.56,1.25-1.25,1.25Z"/>
      <path class="cls-1" d="M5.9,27.04H1.25c-.69,0-1.25-.56-1.25-1.25s.56-1.25,1.25-1.25h4.65c.69,0,1.25.56,1.25,1.25s-.56,1.25-1.25,1.25Z"/>
      <path class="cls-1" d="M5.9,14.77H1.25c-.69,0-1.25-.56-1.25-1.25s.56-1.25,1.25-1.25h4.65c.69,0,1.25.56,1.25,1.25s-.56,1.25-1.25,1.25Z"/>
      <path class="cls-1" d="M5.9,56.41c-.69,0-1.25-.56-1.25-1.25v-3.57H1.25c-.69,0-1.25-.56-1.25-1.25s.56-1.25,1.25-1.25h4.65c.69,0,1.25.56,1.25,1.25v4.82c0,.69-.56,1.25-1.25,1.25Z"/>
      <path class="cls-1" d="M54.55,56.09c-.69,0-1.25-.56-1.25-1.25v-3.25H5.9c-.69,0-1.25-.56-1.25-1.25V2.5H1.25c-.69,0-1.25-.56-1.25-1.25S.56,0,1.25,0h4.65c.69,0,1.25.56,1.25,1.25v47.84h46.79c.17-.09.37-.15.58-.15h.03c.67,0,1.22.53,1.25,1.19v.15c0,.06,0,.12,0,.19v4.37c0,.69-.56,1.25-1.25,1.25Z"/>
      <path class="cls-1" d="M30,56.09c-.69,0-1.25-.56-1.25-1.25v-4.65c0-.69.56-1.25,1.25-1.25s1.25.56,1.25,1.25v4.65c0,.69-.56,1.25-1.25,1.25Z"/>
      <path class="cls-1" d="M46.23,47.21s-.03,0-.04,0c-.61-.02-1.12-.48-1.2-1.09l-2.07-15.87-3.84,8.34c-.25.53-.82.83-1.39.7-.57-.12-.98-.62-.99-1.21l-.29-20.25-1.22,6.44c-.11.59-.63,1.02-1.23,1.02h-11.37l-3.22,9.67c-.15.45-.54.77-1,.84-.46.07-.93-.13-1.2-.51l-3.18-4.45-2.64,5.27c-.31.62-1.06.87-1.68.56-.62-.31-.87-1.06-.56-1.68l3.56-7.13c.2-.39.58-.65,1.02-.69.43-.04.86.16,1.12.52l2.96,4.14,2.73-8.19c.17-.51.65-.85,1.19-.85h11.24l3.33-17.59c.12-.63.71-1.07,1.34-1.01.64.05,1.13.59,1.14,1.23l.39,27.12,3.35-7.27c.23-.5.77-.8,1.32-.71.55.08.98.52,1.05,1.07l1.65,12.65,3.77-18.87c.12-.59.63-1,1.23-1h.04c.61.02,1.12.47,1.2,1.07l2.63,18.41c.1.68-.38,1.32-1.06,1.41-.67.09-1.32-.38-1.41-1.06l-1.6-11.19-3.83,19.14c-.12.59-.63,1-1.23,1Z"/>
    </g>
  </g>
</svg>