<?xml version="1.0" encoding="UTF-8"?>
<svg id="Layer_2" data-name="Layer 2" xmlns="http://www.w3.org/2000/svg" viewBox="0 0 44.83 59.25">
  <defs>
    <style>
      .cls-1 {
        fill: #5c5c64;
      }
    </style>
  </defs>
  <g id="datalabs">
    <g>
      <path class="cls-1" d="M13.36,51.68c-3.19,0-5.79-2.6-5.79-5.79s2.6-5.79,5.79-5.79,5.79,2.6,5.79,5.79-2.6,5.79-5.79,5.79ZM13.36,42.6c-1.81,0-3.29,1.48-3.29,3.29s1.48,3.29,3.29,3.29,3.29-1.48,3.29-3.29-1.48-3.29-3.29-3.29Z"/>
      <path class="cls-1" d="M13.36,59.25c-7.37,0-13.36-5.99-13.36-13.36,0-3.59,1.39-6.82,4.04-9.37V9.32C4.04,4.18,8.22,0,13.36,0s9.32,4.18,9.32,9.32v27.01c2.57,2.51,4.04,5.96,4.04,9.56,0,7.36-5.99,13.36-13.36,13.36ZM13.36,2.5c-3.76,0-6.82,3.06-6.82,6.82v27.74c0,.36-.15.69-.42.93-2.37,2.12-3.62,4.85-3.62,7.9,0,5.99,4.87,10.86,10.86,10.86s10.86-4.87,10.86-10.86c0-3.08-1.32-6.03-3.62-8.09-.26-.24-.42-.58-.42-.93V9.32c0-3.76-3.06-6.82-6.82-6.82Z"/>
      <path class="cls-1" d="M13.36,42.6c-.69,0-1.25-.56-1.25-1.25v-24.35c0-.69.56-1.25,1.25-1.25s1.25.56,1.25,1.25v24.35c0,.69-.56,1.25-1.25,1.25Z"/>
      <path class="cls-1" d="M36.41,6.03h-8.93c-.69,0-1.25-.56-1.25-1.25s.56-1.25,1.25-1.25h8.93c.69,0,1.25.56,1.25,1.25s-.56,1.25-1.25,1.25Z"/>
      <path class="cls-1" d="M36.41,36.46h-8.93c-.69,0-1.25-.56-1.25-1.25s.56-1.25,1.25-1.25h8.93c.69,0,1.25.56,1.25,1.25s-.56,1.25-1.25,1.25Z"/>
      <path class="cls-1" d="M36.41,21.25h-8.93c-.69,0-1.25-.56-1.25-1.25s.56-1.25,1.25-1.25h8.93c.69,0,1.25.56,1.25,1.25s-.56,1.25-1.25,1.25Z"/>
      <path class="cls-1" d="M43.58,13.64h-16.1c-.69,0-1.25-.56-1.25-1.25s.56-1.25,1.25-1.25h16.1c.69,0,1.25.56,1.25,1.25s-.56,1.25-1.25,1.25Z"/>
      <path class="cls-1" d="M43.58,28.85h-16.1c-.69,0-1.25-.56-1.25-1.25s.56-1.25,1.25-1.25h16.1c.69,0,1.25.56,1.25,1.25s-.56,1.25-1.25,1.25Z"/>
    </g>
  </g>
</svg>