<?xml version="1.0" encoding="UTF-8"?>
<svg id="Layer_2" data-name="Layer 2" xmlns="http://www.w3.org/2000/svg" viewBox="0 0 23.34 23.66">
  <defs>
    <style>
      .cls-1 {
        fill: none;
        stroke: #3ad4ed;
        stroke-linecap: round;
        stroke-linejoin: round;
        stroke-width: 2px;
      }
    </style>
  </defs>
  <g id="datalabs">
    <g>
      <polygon class="cls-1" points="20.2 13.64 22.34 13.48 22.34 10.02 19.95 9.69 19.13 6.93 20.37 5.15 18.14 2.85 15.83 4.33 13.53 3.24 13.2 1 10.15 1 9.65 3.24 7.18 4.49 4.96 3.24 2.98 5.15 4.21 7.27 3.47 9.69 1 10.26 1 13.31 3.39 13.72 4.38 16.11 2.81 18.42 4.79 20.48 7.26 19.08 9.9 20.48 10.15 22.66 13.53 22.66 13.53 20.24 16.33 19.14 18.36 20.62 20.72 18.48 19.3 16.28 20.2 13.64"/>
      <circle class="cls-1" cx="11.67" cy="11.83" r="3.64"/>
    </g>
  </g>
</svg>